{"title":"Brooklyn 2015 DVDSCR x264-BTCHKEK","uid":13018897,"size":876343017,"categoryP":"video","categoryS":"movies","magnet":"?xt=urn:btih:f20a8f2673171fd12efe2ff0e88edb297be600f9&amp;dn=Brooklyn+2015+DVDSCR+x264-BTCHKEK&amp;tr=udp%3A%2F%2Ftracker.leechers-paradise.org%3A6969&amp;tr=udp%3A%2F%2Fzer0day.ch%3A1337&amp;tr=udp%3A%2F%2Fopen.demonii.com%3A1337&amp;tr=udp%3A%2F%2Ftracker.coppersurfer.tk%3A6969&amp;tr=udp%3A%2F%2Fexodus.desync.com%3A6969","seeders":0,"leechers":5,"uploader":"makintos13","files":1,"time":1450322616,"description":"screens:\r\n \nhttp://imgmak.com/Kxt \nhttp://imgmak.com/Kx2 \nhttp://imgmak.com/KxF\r\n\r\n\r\nGeneral\r\nUnique ID                                : 200250994971489706441374157259767218722 (0x96A6F052A2461EBC9F4409F3F0130222)\r\nComplete name                            : Brooklyn.2015.DVDSCR.x264-BTCHKEK.mkv\r\nFormat                                   : Matroska\r\nFormat version                           : Version 2\r\nFile size                                : 836 MiB\r\nDuration                                 : 1h 51mn\r\nOverall bit rate                         : 1 045 Kbps\r\nEncoded date                             : UTC 2015-12-16 21:55:41\r\nWriting application                      : mkvmerge v7.7.0 ('Six Voices') 32bit built on Feb 28 2015 23:23:00\r\nWriting library                          : libebml v1.3.1 + libmatroska v1.4.2\r\n_STATISTICS_WRITING_APP                  : mkvmerge v7.7.0 ('Six Voices') 32bit built on Feb 28 2015 23:23:00\r\n_STATISTICS_WRITING_DATE_UTC             : 2015-12-16 21:55:41\r\n_STATISTICS_TAGS                         : BPS DURATION NUMBER_OF_FRAMES NUMBER_OF_BYTES\r\nDURATION                                 : 01:51:45.720000000\r\nNUMBER_OF_FRAMES                         : 279405\r\nNUMBER_OF_BYTES                          : 187760160\r\n\r\nVideo\r\nID                                       : 1\r\nFormat                                   : AVC\r\nFormat/Info                              : Advanced Video Codec\r\nFormat profile                           :   \r\nFormat settings, CABAC                   : Yes\r\nFormat settings, ReFrames                : 5 frames\r\nCodec ID                                 : V_MPEG4/ISO/AVC\r\nDuration                                 : 1h 51mn\r\nBit rate                                 : 801 Kbps\r\nWidth                                    : 704 pixels\r\nHeight                                   : 368 pixels\r\nDisplay aspect ratio                     : 1.913\r\nFrame rate mode                          : Constant\r\nFrame rate                               : 23.976 fps\r\nColor space                              : YUV\r\nChroma subsampling                       : 4:2:0\r\nBit depth                                : 8 bits\r\nScan type                                : Progressive\r\nBits/(Pixel*Frame)                       : 0.129\r\nStream size                              : 640 MiB (77%)\r\nWriting library                          : x264 core 148 r2579 73ae2d1\r\nEncoding settings                        : cabac=1 / ref=5 / deblock=1:0:0 / analyse=0x3:0x113 / me=umh / subme=8 / psy=1 / psy_rd=1.00:0.00 / mixed_ref=1 / me_range=16 / chroma_me=1 / trellis=1 / 8x8dct=1 / cqm=0 / deadzone=21,11 / fast_pskip=1 / chroma_qp_offset=-2 / threads=11 / lookahead_threads=1 / sliced_threads=0 / nr=0 / decimate=1 / interlaced=0 / bluray_compat=0 / constrained_intra=0 / bframes=3 / b_pyramid=2 / b_adapt=2 / b_bias=0 / direct=3 / weightb=1 / open_gop=0 / weightp=2 / keyint=240 / keyint_min=23 / scenecut=40 / intra_refresh=0 / rc_lookahead=50 / rc=crf / mbtree=1 / crf=18.0 / qcomp=0.60 / qpmin=0 / qpmax=69 / qpstep=4 / vbv_maxrate=62500 / vbv_bufsize=78125 / crf_max=0.0 / nal_hrd=none / filler=0 / ip_ratio=1.40 / aq=1:1.00\r\nDefault                                  : Yes\r\nForced                                   : No\r\n\r\nAudio\r\nID                                       : 2\r\nFormat                                   : MPEG Audio\r\nFormat version                           : Version 1\r\nFormat profile                           : Layer 2\r\nCodec ID                                 : A_MPEG/L2\r\nCodec ID/Hint                            : MP2\r\nDuration                                 : 1h 51mn\r\nBit rate mode                            : Constant\r\nBit rate                                 : 224 Kbps\r\nChannel(s)                               : 2 channels\r\nSampling rate                            : 48.0 KHz\r\nCompression mode                         : Lossy\r\nDelay relative to video                  : 15ms\r\nStream size                              : 179 MiB (21%)\r\nDefault                                  : Yes\r\nForced                                   : No","torrent":{"xt":"urn:btih:f20a8f2673171fd12efe2ff0e88edb297be600f9","amp;dn":"Brooklyn+2015+DVDSCR+x264-BTCHKEK","amp;tr":["udp%3A%2F%2Ftracker.leechers-paradise.org%3A6969","udp%3A%2F%2Fzer0day.ch%3A1337","udp%3A%2F%2Fopen.demonii.com%3A1337","udp%3A%2F%2Ftracker.coppersurfer.tk%3A6969","udp%3A%2F%2Fexodus.desync.com%3A6969"],"infoHash":"f20a8f2673171fd12efe2ff0e88edb297be600f9","infoHashBuffer":{"type":"Buffer","data":[242,10,143,38,115,23,31,209,46,254,47,240,232,142,219,41,123,230,0,249]},"announce":[],"urlList":[]}}